<?xml version="1.0" encoding="UTF-8"?> <svg xmlns="http://www.w3.org/2000/svg" width="80" height="74" viewBox="0 0 80 74" fill="none"><path d="M56.2585 51.4775C56.1607 51.4864 56.0273 51.5042 55.8672 51.522C55.4581 51.5664 55.0579 51.6198 54.6666 51.6376C54.6666 51.6376 54.6666 51.6465 54.6754 51.6554C53.7505 51.7532 52.6121 51.8599 51.5982 51.9044C51.4292 51.8422 51.2691 51.7888 51.1268 51.7532C50.9845 51.7265 50.6555 51.6643 50.193 51.5842C50.113 51.5842 50.0329 51.5842 50.024 51.5842C49.944 51.5842 49.8639 51.5664 49.7928 51.522C48.3876 51.2996 46.342 51.0506 44.2609 51.0506C42.1797 51.0506 38.4355 51.353 37.6617 53.363C36.9057 55.3196 38.9691 56.2445 39.3871 56.4135C39.9118 56.6626 48.2897 59.4819 49.8639 59.802C52.0874 60.2645 54.0084 60.5313 56.2319 60.8426L56.3653 60.8604C56.6676 60.9049 56.8811 60.9138 57.0946 60.9138C58.0729 60.9138 58.7666 60.5313 59.2824 59.7131C61.9416 55.1595 63.5336 51.2463 63.4803 50.1523C62.8755 50.1612 61.6837 50.4192 60.4208 50.686C59.149 50.9617 57.6815 51.2641 56.2585 51.4597" fill="#2EA7DE"></path><path d="M64.1473 13.3328C62.9377 12.7192 61.6926 12.399 60.5275 12.399C58.7488 12.399 57.219 13.155 56.0984 14.578C54.631 16.4545 54.3108 16.7036 53.8216 16.7036C53.5904 16.7036 53.3591 16.6057 53.208 16.4279C52.8967 16.0632 52.9767 15.6363 53.0923 14.9871C53.1368 14.7381 53.1902 14.4623 53.2169 14.1866C51.3581 13.9554 49.6327 13.1994 48.1118 12.5146C46.5465 11.8298 45.088 11.1895 43.7628 11.1895C42.7222 11.1895 41.7795 11.6075 40.899 12.4613C40.6767 12.6836 40.4543 12.8882 40.2142 13.1016C39.307 13.9109 37.8485 15.4673 37.5461 16.3923C37.4571 16.668 37.2526 17.2994 36.6211 17.2994C36.5055 17.2994 36.292 17.2639 36.212 17.1927L36.1053 17.1038C35.8296 16.8281 35.714 16.5435 35.7228 15.1472C35.0558 15.1116 34.4777 15.0938 33.9441 15.0938C31.3738 15.0938 29.6751 15.5118 28.0564 16.5257C26.5534 17.4684 25.5395 19.265 25.1215 20.519C24.997 20.9014 24.7569 21.604 24.0898 21.604C23.3161 21.604 23.156 20.8036 23.1204 19.9854C19.554 20.3144 17.2239 21.1682 16.0321 22.5823C15.2939 23.4717 15.0182 24.619 15.1961 25.9975C15.3651 27.2604 15.4896 28.8168 15.6141 30.3288C16.21 37.506 17.0282 47.3514 22.489 47.3514C23.2182 47.3514 24.0187 47.1824 24.8992 46.8533C25.6107 46.5865 26.002 46.2574 26.1888 46.0796C25.0148 40.2453 24.6323 31.227 24.9614 29.5194C24.9881 29.3771 25.1393 28.8791 25.8508 28.8791C26.0376 28.8791 26.2243 28.9413 26.3933 29.0481L26.5089 29.1281C26.6601 29.2259 26.7402 29.3949 26.7313 29.5728V29.7062C26.8291 36.0296 27.0514 40.7166 28.9369 47.3247C29.3905 47.5648 30.0664 47.6982 30.8935 47.6982C32.4499 47.6982 35.0113 47.2535 36.3543 46.5954C36.3721 46.5954 36.879 46.2574 36.879 44.4609C36.7723 42.6288 35.874 26.291 36.381 24.6546C36.4432 24.4411 36.6478 24.0854 37.2615 24.0854C37.2793 24.0854 37.3682 24.0854 37.386 24.0854L37.6083 24.112C37.8662 24.1387 38.0619 24.3611 38.053 24.619V25.2949C38.0174 30.1242 37.9641 40.1208 39.9385 47.0045C40.5788 47.3603 41.6283 47.5648 42.8467 47.5648C44.75 47.5648 46.8489 47.1112 48.183 46.4086C48.1652 46.4086 48.4587 46.0084 48.4587 44.2919C48.4409 44.2297 48.2275 26.1398 49.7305 24.4589C50.0507 24.112 50.4331 24.0587 50.6554 24.0943L50.8867 24.1298C51.1535 24.1654 51.3403 24.4055 51.3136 24.6723L51.2958 24.8947C51.2335 25.5973 51.1713 26.3533 51.0912 27.1359C50.5131 33.3793 50.3975 37.9685 51.2958 46.9511C52.4609 47.3603 54.7288 47.6538 56.7832 47.6538C59.4336 47.6538 60.9989 47.1468 61.2123 46.88C62.413 43.3225 63.169 38.0396 63.7648 33.7973C64.0316 31.903 64.3074 29.9374 64.592 28.5055C66.762 21.7285 66.7709 20.4478 66.7709 20.4034C66.9577 16.6235 66.0683 14.2667 64.1473 13.3417" fill="#2EA7DE"></path><path d="M79.5229 15.322C79.2117 12.4048 78.6691 9.38986 76.9971 6.97076C76.419 6.13475 75.7342 5.40547 74.9604 4.77401C72.6926 2.90633 69.7132 1.85687 66.7782 1.34103C54.4337 -0.820143 41.3777 -0.330988 29.2022 2.53279C19.001 4.94299 3.74826 9.58552 0.697706 21.0229C-0.547418 25.6921 0.00399426 30.6903 1.32916 35.3418C4.49533 46.4856 12.1884 55.3526 21.8026 61.5516C31.3811 67.7238 45.4332 74.1807 56.9862 73.8694C66.627 73.6115 71.4919 66.9412 74.2667 58.4655C78.7314 44.8225 81.0705 29.6587 79.5229 15.3309M70.1667 30.8237C68.717 41.1049 67.5786 47.8197 67.3652 49.0559C67.2051 49.9631 66.6003 52.9958 65.4086 56.1709C63.532 61.1603 61.1485 64.0418 58.3203 64.7355C58.3025 64.7355 58.2758 64.7355 58.258 64.7444L57.9112 64.8156C57.9112 64.8156 57.8489 64.8334 57.8133 64.8334C57.5465 64.8689 57.3153 64.8867 57.084 64.8867H56.8706C56.4348 64.8867 55.9901 64.8245 55.5543 64.7266C54.6294 64.531 53.6688 64.3709 52.7439 64.2197C51.2319 63.9707 49.7467 63.7216 48.3148 63.3392C46.3048 62.8056 44.3571 62.1741 42.6406 61.6138L42.1159 61.4449C40.9241 61.0624 39.7768 60.6978 38.6117 60.3598C36.0503 59.6216 34.4939 58.2698 33.8625 56.2509C31.0698 55.8952 21.7759 54.1253 18.3607 50.5678C18.2895 50.4967 12.3574 43.8264 12.3307 27.1684V26.9016C12.3307 25.9678 12.3485 25.0161 12.393 24.02C12.7665 18.0435 17.2045 17.2697 22.354 16.3625C23.1188 16.2291 23.6791 15.5443 24.3195 14.7439C24.9776 13.9346 25.7158 13.0185 26.8364 12.4849C28.2772 11.809 29.9937 11.7823 31.6479 11.7467C33.0531 11.72 34.5028 11.7022 35.5967 11.2575C36.5306 10.8751 37.3755 10.2792 38.1848 9.70114C39.7146 8.6161 41.2354 7.52217 43.4855 7.49549H43.6367C44.4104 7.49549 45.202 7.6289 46.0736 7.89571C47.1764 8.22478 48.0569 8.74951 48.9107 9.25645C50.2447 10.048 51.4009 10.7328 53.2597 10.7328C53.7222 10.7328 54.2291 10.6883 54.7628 10.5994C55.1274 10.5371 55.5187 10.3504 55.9278 10.1547C56.5237 9.87012 57.2619 9.51437 58.2135 9.38096C62.5981 8.77619 65.8266 9.66556 67.9255 11.9779C71.6787 16.1046 71.0472 23.8422 70.1578 30.7793" fill="#2EA7DE"></path></svg> 